<?xml version="1.0" standalone="no"?>
<!DOCTYPE svg PUBLIC "-//W3C//DTD SVG 20010904//EN"
 "http://www.w3.org/TR/2001/REC-SVG-20010904/DTD/svg10.dtd">
<svg version="1.0" xmlns="http://www.w3.org/2000/svg"
 width="314.000000pt" height="307.000000pt" viewBox="0 0 314.000000 307.000000"
 preserveAspectRatio="xMidYMid meet">
<g transform="translate(0.000000,307.000000) scale(0.100000,-0.100000)"
fill="#000000" stroke="none">
<path d="M675 3045 c-88 -17 -136 -34 -234 -85 -157 -82 -266 -196 -347 -365
-83 -172 -79 -114 -79 -1055 0 -947 -5 -884 84 -1065 87 -176 198 -285 376
-371 173 -84 110 -79 1090 -79 980 0 917 -5 1090 79 178 86 289 195 376 371
89 181 84 118 84 1065 0 947 5 884 -84 1065 -87 176 -198 285 -376 371 -173
83 -105 78 -1060 81 -674 1 -864 -1 -920 -12z m1805 -223 c196 -70 332 -206
402 -402 l23 -65 0 -815 0 -815 -23 -65 c-70 -196 -206 -332 -402 -402 l-65
-23 -850 0 -850 0 -65 23 c-196 70 -332 206 -402 402 l-23 65 -3 785 c-3 872
-4 862 62 993 69 136 157 223 291 287 126 60 102 59 1010 57 l830 -2 65 -23z"/>
<path d="M1010 2253 c-125 -20 -350 -79 -368 -98 -2 -2 7 -22 20 -44 l23 -41
105 0 c58 0 128 -3 155 -5 28 -2 104 -9 170 -15 230 -21 467 -81 612 -153 85
-43 211 -128 308 -207 67 -55 77 -60 105 -53 l30 8 -41 83 c-57 113 -108 166
-257 265 -240 161 -378 227 -521 252 -76 14 -278 18 -341 8z"/>
<path d="M880 1835 c0 -3 31 -47 68 -97 152 -205 215 -318 267 -470 16 -49 33
-88 37 -88 6 0 175 67 353 141 69 28 71 31 83 75 23 86 96 134 203 134 25 0
67 7 93 16 30 10 65 15 93 11 37 -4 43 -3 32 8 -29 28 -148 85 -244 119 -154
53 -145 52 -145 19 0 -38 -26 -131 -41 -149 -34 -41 -143 -50 -205 -16 -37 20
-74 72 -80 113 -6 34 -13 44 -52 66 -83 49 -211 93 -310 108 -100 15 -152 19
-152 10z"/>
<path d="M1500 1762 c-90 -44 -59 -178 45 -198 75 -14 132 36 122 107 -6 47
-29 76 -74 95 -42 18 -51 18 -93 -4z"/>
<path d="M2239 1638 c-8 -14 -4 -19 18 -24 196 -44 316 -82 387 -122 97 -53
85 -56 -180 -46 -332 12 -380 11 -436 -14 -51 -22 -57 -32 -34 -51 11 -9 28
-7 74 8 55 19 72 20 213 11 190 -11 513 -15 528 -6 21 13 11 34 -36 74 -87 72
-196 120 -380 166 -111 28 -141 29 -154 4z"/>
<path d="M1922 1338 c-91 -20 -235 -154 -373 -346 l-30 -42 53 21 c104 43 181
60 245 57 87 -5 92 -13 64 -95 -39 -113 -91 -203 -170 -292 -16 -18 -18 -27
-10 -38 20 -23 35 -15 82 45 76 97 167 285 167 346 0 31 72 157 134 235 30 37
51 73 47 79 -17 28 -139 46 -209 30z"/>
</g>
</svg>
